<svg width="67" height="10" viewBox="0 0 67 10" fill="none" xmlns="http://www.w3.org/2000/svg">
<path fill-rule="evenodd" clip-rule="evenodd" d="M11.413 3.81053L7.31 3.48421L5.70648 0L4.10296 3.48947L0 3.81053L3.11574 6.3L2.17988 10L5.70648 8.03684L9.23309 10L8.30293 6.3L11.413 3.81053ZM5.70647 7.05263L3.56083 8.24737L4.13148 5.99474L2.23693 4.47895L4.73637 4.27895L5.70647 2.1579L6.68228 4.28421L9.18172 4.48421L7.28717 6L7.85781 8.25263L5.70647 7.05263Z" fill="#F8475F"/>
<path fill-rule="evenodd" clip-rule="evenodd" d="M66.413 3.81053L62.31 3.48421L60.7065 0L59.103 3.48947L55 3.81053L58.1157 6.3L57.1799 10L60.7065 8.03684L64.2331 10L63.3029 6.3L66.413 3.81053ZM60.7065 7.05263L58.5608 8.24737L59.1315 5.99474L57.2369 4.47895L59.7364 4.27895L60.7065 2.1579L61.6823 4.28421L64.1817 4.48421L62.2872 6L62.8578 8.25263L60.7065 7.05263Z" fill="#F8475F"/>
<path fill-rule="evenodd" clip-rule="evenodd" d="M52.413 3.81053L48.31 3.48421L46.7065 0L45.103 3.48947L41 3.81053L44.1157 6.3L43.1799 10L46.7065 8.03684L50.2331 10L49.3029 6.3L52.413 3.81053ZM46.7065 7.05263L44.5608 8.24737L45.1315 5.99474L43.2369 4.47895L45.7364 4.27895L46.7065 2.1579L47.6823 4.28421L50.1817 4.48421L48.2872 6L48.8578 8.25263L46.7065 7.05263Z" fill="#F8475F"/>
<path fill-rule="evenodd" clip-rule="evenodd" d="M38.413 3.81053L34.31 3.48421L32.7065 0L31.103 3.48947L27 3.81053L30.1157 6.3L29.1799 10L32.7065 8.03684L36.2331 10L35.3029 6.3L38.413 3.81053ZM32.7065 7.05263L30.5608 8.24737L31.1315 5.99474L29.2369 4.47895L31.7364 4.27895L32.7065 2.1579L33.6823 4.28421L36.1817 4.48421L34.2872 6L34.8578 8.25263L32.7065 7.05263Z" fill="#F8475F"/>
<path fill-rule="evenodd" clip-rule="evenodd" d="M24.413 3.81053L20.31 3.48421L18.7065 0L17.103 3.48947L13 3.81053L16.1157 6.3L15.1799 10L18.7065 8.03684L22.2331 10L21.3029 6.3L24.413 3.81053ZM18.7065 7.05263L16.5608 8.24737L17.1315 5.99474L15.2369 4.47895L17.7364 4.27895L18.7065 2.1579L19.6823 4.28421L22.1817 4.48421L20.2872 6L20.8578 8.25263L18.7065 7.05263Z" fill="#F8475F"/>
</svg>
