<svg width="54" height="32" viewBox="0 0 54 32" fill="none" xmlns="http://www.w3.org/2000/svg">
<path d="M34.8284 21.3651H33.1109V27.1713C33.1109 27.28 33.0164 27.3731 32.9061 27.3731H31.5825C31.4722 27.3731 31.3776 27.28 31.3776 27.1713V21.3651H29.6444C29.5971 21.3651 29.5341 21.3496 29.5026 21.3185C29.471 21.2875 29.4395 21.2409 29.4395 21.1788V20.1542C29.4395 20.1076 29.4553 20.0455 29.5026 20.0144C29.5341 19.9834 29.5971 19.9524 29.6444 19.9679H34.8284C34.9387 19.9679 35.0333 20.0455 35.0333 20.1542V21.1788C35.0333 21.2875 34.9387 21.3651 34.8284 21.3651Z" fill="white"/>
<path d="M40.3434 27.3266C39.6658 27.4197 38.9725 27.4663 38.295 27.4508C36.9871 27.4508 35.8369 27.1247 35.8369 25.3084V22.0016C35.8369 20.1852 37.0029 19.8747 38.3107 19.8747C38.9883 19.8592 39.6658 19.9058 40.3434 19.9989C40.4852 20.0145 40.5482 20.0766 40.5482 20.2008V21.1322C40.5482 21.2409 40.4537 21.3341 40.3434 21.3341H38.2162C37.7435 21.3341 37.5701 21.4893 37.5701 22.0171V22.9176H40.2646C40.3749 22.9176 40.4694 23.0107 40.4694 23.1194V24.0664C40.4694 24.1751 40.3749 24.2682 40.2646 24.2682H37.5701V25.3239C37.5701 25.8362 37.7435 26.007 38.2162 26.007H40.3434C40.4537 26.007 40.5482 26.1001 40.5482 26.2088V27.1403C40.5482 27.2489 40.4852 27.311 40.3434 27.3266Z" fill="white"/>
<path d="M47.9697 27.3731H46.3625C46.2522 27.3887 46.1419 27.3266 46.0947 27.2179L44.6923 25.0444L43.4317 27.1713C43.3687 27.2955 43.2899 27.3731 43.1796 27.3731H41.6827C41.6512 27.3731 41.6039 27.3731 41.5724 27.3421C41.5409 27.311 41.5251 27.28 41.5251 27.2334C41.5251 27.2024 41.5409 27.1868 41.5409 27.1713L43.7311 23.5696L41.5094 20.1542C41.4936 20.1387 41.4936 20.1076 41.4936 20.0921C41.4936 20.0145 41.5724 19.9524 41.6512 19.9679H43.3057C43.416 19.9679 43.4948 20.061 43.5578 20.1542L44.8499 22.1724L46.1104 20.1542C46.1577 20.0455 46.2522 19.9834 46.3625 19.9679H47.8594C47.9382 19.9679 48.017 20.0145 48.017 20.0921C48.017 20.1076 48.0013 20.1387 48.0013 20.1542L45.7953 23.6006L48.0958 27.1713C48.1116 27.2024 48.1273 27.2334 48.1273 27.2645C48.1116 27.3266 48.0643 27.3731 47.9697 27.3731Z" fill="white"/>
<path d="M27.0129 19.9834C26.9342 19.9834 26.8711 20.03 26.8554 20.1076L25.39 25.4636C25.3742 25.5723 25.3427 25.6189 25.2482 25.6189C25.1536 25.6189 25.1221 25.5723 25.1063 25.4636L23.6409 20.1076C23.6252 20.03 23.5622 19.9834 23.4834 19.9834H22.0337C21.9865 19.9834 21.9392 19.9989 21.9077 20.0455C21.8762 20.0766 21.8604 20.1231 21.8762 20.1697C21.8762 20.1697 23.6725 26.3175 23.6882 26.3796C23.9246 27.1092 24.5076 27.4663 25.2482 27.4663C25.9572 27.4973 26.6033 27.0471 26.8081 26.3796C26.8396 26.3019 28.5886 20.1697 28.5886 20.1697C28.6044 20.1231 28.5886 20.0766 28.5571 20.0455C28.5256 20.0145 28.4783 19.9834 28.4311 19.9834H27.0129Z" fill="white"/>
<path d="M18.8193 15H3.73988C3.18838 15 2.68416 15.295 2.41629 15.7452C2.13266 16.2109 2.11691 16.7853 2.36902 17.2511L3.88169 20.0766H1.13997C0.793321 20.0766 0.462424 20.2473 0.273341 20.5423C0.0842566 20.8373 0.0842565 21.2098 0.241826 21.5203L5.09498 30.5557C5.26831 30.8817 5.61496 31.0835 5.97737 31.0835C6.33978 31.0835 6.68643 30.8817 6.85976 30.5557L8.18335 28.1028L9.83783 31.1922C10.1057 31.689 10.6414 31.9995 11.2087 31.9995C11.7759 31.9995 12.3117 31.689 12.5795 31.1922L20.1429 17.1734C20.395 16.7077 20.3793 16.1488 20.0956 15.7141C19.8435 15.2639 19.3551 15 18.8193 15ZM12.0753 20.9149L8.76636 27.0316C8.65606 27.2489 8.43546 27.3731 8.18335 27.3731C7.93124 27.3731 7.71064 27.2334 7.60034 27.0316L4.33864 20.977C4.2441 20.7907 4.2441 20.5733 4.3544 20.387C4.4647 20.2007 4.66954 20.0921 4.87438 20.0921H11.5553C11.7602 20.0921 11.9493 20.1852 12.0438 20.356C12.1699 20.5268 12.1699 20.7441 12.0753 20.9149Z" fill="white"/>
<path d="M1.28 10.05C1.15333 10.05 1.05333 10.0133 0.98 9.94C0.906667 9.86 0.87 9.75667 0.87 9.63V3.35C0.87 3.23 0.906667 3.13333 0.98 3.06C1.06 2.98667 1.16333 2.95 1.29 2.95H3.66C4.4 2.95 4.97333 3.13 5.38 3.49C5.79333 3.85 6 4.36 6 5.02C6 5.68 5.79333 6.19333 5.38 6.56C4.96667 6.92667 4.39333 7.11 3.66 7.11H1.69V9.63C1.69 9.75667 1.65333 9.86 1.58 9.94C1.50667 10.0133 1.40667 10.05 1.28 10.05ZM3.58 6.43C4.65333 6.43 5.19 5.96 5.19 5.02C5.19 4.09333 4.65333 3.63 3.58 3.63H1.69V6.43H3.58ZM9.05906 10.07C8.59906 10.07 8.1924 9.96667 7.83906 9.76C7.4924 9.55333 7.2224 9.26 7.02906 8.88C6.8424 8.49333 6.74906 8.04667 6.74906 7.54C6.74906 7.03333 6.8424 6.59 7.02906 6.21C7.2224 5.82333 7.4924 5.52667 7.83906 5.32C8.1924 5.11333 8.59906 5.01 9.05906 5.01C9.51906 5.01 9.92573 5.11333 10.2791 5.32C10.6324 5.52667 10.9024 5.82333 11.0891 6.21C11.2824 6.59 11.3791 7.03333 11.3791 7.54C11.3791 8.04667 11.2824 8.49333 11.0891 8.88C10.9024 9.26 10.6324 9.55333 10.2791 9.76C9.92573 9.96667 9.51906 10.07 9.05906 10.07ZM9.05906 9.4C9.53906 9.4 9.90573 9.24333 10.1591 8.93C10.4191 8.61 10.5491 8.14667 10.5491 7.54C10.5491 6.94667 10.4191 6.49 10.1591 6.17C9.89906 5.84333 9.5324 5.68 9.05906 5.68C8.58573 5.68 8.21906 5.84333 7.95906 6.17C7.69906 6.49 7.56906 6.94667 7.56906 7.54C7.56906 8.14 7.69573 8.6 7.94906 8.92C8.20906 9.24 8.57906 9.4 9.05906 9.4ZM19.1873 5.29C19.254 5.13 19.364 5.05 19.5173 5.05C19.6173 5.05 19.7073 5.08333 19.7873 5.15C19.8673 5.21667 19.9073 5.3 19.9073 5.4C19.9073 5.44667 19.8973 5.49667 19.8773 5.55L18.2173 9.75C18.1773 9.83667 18.1173 9.90667 18.0373 9.96C17.964 10.0067 17.8807 10.03 17.7873 10.03C17.7007 10.03 17.6173 10.0067 17.5373 9.96C17.464 9.90667 17.4073 9.83667 17.3673 9.75L15.9873 6.24L14.6173 9.75C14.584 9.83667 14.5273 9.90667 14.4473 9.96C14.3673 10.0067 14.2807 10.03 14.1873 10.03C14.1007 10.03 14.0173 10.0067 13.9373 9.96C13.8573 9.90667 13.7973 9.83667 13.7573 9.75L12.0973 5.56C12.0773 5.50667 12.0673 5.46 12.0673 5.42C12.0673 5.31333 12.1107 5.22333 12.1973 5.15C12.2907 5.07667 12.3907 5.04 12.4973 5.04C12.6573 5.04 12.7707 5.12 12.8373 5.28L14.2073 8.97L15.6173 5.31C15.6573 5.22333 15.7107 5.15667 15.7773 5.11C15.8507 5.06333 15.9273 5.04 16.0073 5.04C16.094 5.04 16.1707 5.06333 16.2373 5.11C16.3107 5.15667 16.364 5.22333 16.3973 5.31L17.8073 8.96L19.1873 5.29ZM24.6567 8.87C24.7301 8.87 24.7934 8.9 24.8467 8.96C24.9001 9.02 24.9267 9.09667 24.9267 9.19C24.9267 9.35667 24.8101 9.51 24.5767 9.65C24.3367 9.79 24.0834 9.89667 23.8167 9.97C23.5501 10.0367 23.2901 10.07 23.0367 10.07C22.2834 10.07 21.6867 9.84667 21.2467 9.4C20.8134 8.95333 20.5967 8.33667 20.5967 7.55C20.5967 7.05 20.6934 6.61 20.8867 6.23C21.0801 5.84333 21.3501 5.54333 21.6967 5.33C22.0501 5.11667 22.4501 5.01 22.8967 5.01C23.5301 5.01 24.0334 5.21667 24.4067 5.63C24.7801 6.04333 24.9667 6.60333 24.9667 7.31C24.9667 7.44333 24.9401 7.54 24.8867 7.6C24.8334 7.66 24.7467 7.69 24.6267 7.69H21.4067C21.4667 8.83667 22.0101 9.41 23.0367 9.41C23.2967 9.41 23.5201 9.37667 23.7067 9.31C23.8934 9.23667 24.0934 9.14 24.3067 9.02C24.4801 8.92 24.5967 8.87 24.6567 8.87ZM22.9067 5.64C22.4801 5.64 22.1367 5.77333 21.8767 6.04C21.6234 6.30667 21.4734 6.68333 21.4267 7.17H24.2567C24.2434 6.67667 24.1201 6.3 23.8867 6.04C23.6534 5.77333 23.3267 5.64 22.9067 5.64ZM28.5702 5.03C28.8502 5.01 28.9902 5.12333 28.9902 5.37C28.9902 5.47667 28.9602 5.56333 28.9002 5.63C28.8402 5.69 28.7368 5.72667 28.5902 5.74L28.2902 5.77C27.8435 5.81 27.5102 5.97 27.2902 6.25C27.0768 6.52333 26.9702 6.84667 26.9702 7.22V9.65C26.9702 9.78333 26.9335 9.88333 26.8602 9.95C26.7868 10.0167 26.6902 10.05 26.5702 10.05C26.4502 10.05 26.3502 10.0167 26.2702 9.95C26.1968 9.87667 26.1602 9.77667 26.1602 9.65V5.43C26.1602 5.30333 26.2002 5.20667 26.2802 5.14C26.3602 5.06667 26.4568 5.03 26.5702 5.03C26.6768 5.03 26.7668 5.06667 26.8402 5.14C26.9135 5.20667 26.9502 5.3 26.9502 5.42V5.98C27.0902 5.68667 27.2868 5.46333 27.5402 5.31C27.8002 5.15667 28.0968 5.06667 28.4302 5.04L28.5702 5.03ZM33.3579 8.87C33.4312 8.87 33.4946 8.9 33.5479 8.96C33.6012 9.02 33.6279 9.09667 33.6279 9.19C33.6279 9.35667 33.5112 9.51 33.2779 9.65C33.0379 9.79 32.7846 9.89667 32.5179 9.97C32.2512 10.0367 31.9912 10.07 31.7379 10.07C30.9846 10.07 30.3879 9.84667 29.9479 9.4C29.5146 8.95333 29.2979 8.33667 29.2979 7.55C29.2979 7.05 29.3946 6.61 29.5879 6.23C29.7812 5.84333 30.0512 5.54333 30.3979 5.33C30.7512 5.11667 31.1512 5.01 31.5979 5.01C32.2312 5.01 32.7346 5.21667 33.1079 5.63C33.4812 6.04333 33.6679 6.60333 33.6679 7.31C33.6679 7.44333 33.6412 7.54 33.5879 7.6C33.5346 7.66 33.4479 7.69 33.3279 7.69H30.1079C30.1679 8.83667 30.7112 9.41 31.7379 9.41C31.9979 9.41 32.2212 9.37667 32.4079 9.31C32.5946 9.23667 32.7946 9.14 33.0079 9.02C33.1812 8.92 33.2979 8.87 33.3579 8.87ZM31.6079 5.64C31.1812 5.64 30.8379 5.77333 30.5779 6.04C30.3246 6.30667 30.1746 6.68333 30.1279 7.17H32.9579C32.9446 6.67667 32.8212 6.3 32.5879 6.04C32.3546 5.77333 32.0279 5.64 31.6079 5.64ZM38.7713 2.9C38.898 2.9 38.998 2.93667 39.0713 3.01C39.1447 3.08333 39.1813 3.17667 39.1813 3.29V9.65C39.1813 9.77 39.1447 9.86667 39.0713 9.94C38.998 10.0133 38.898 10.05 38.7713 10.05C38.6447 10.05 38.5447 10.0133 38.4713 9.94C38.4047 9.86667 38.3713 9.77 38.3713 9.65V9.11C38.2247 9.41667 38.008 9.65333 37.7213 9.82C37.4413 9.98667 37.1113 10.07 36.7313 10.07C36.3047 10.07 35.928 9.96333 35.6013 9.75C35.2747 9.53667 35.0213 9.24 34.8413 8.86C34.6613 8.47333 34.5713 8.02667 34.5713 7.52C34.5713 7.02 34.6613 6.58 34.8413 6.2C35.0213 5.82 35.2747 5.52667 35.6013 5.32C35.928 5.11333 36.3047 5.01 36.7313 5.01C37.1113 5.01 37.4413 5.09333 37.7213 5.26C38.008 5.42667 38.2247 5.66333 38.3713 5.97V3.29C38.3713 3.17 38.4047 3.07667 38.4713 3.01C38.5447 2.93667 38.6447 2.9 38.7713 2.9ZM36.8913 9.4C37.3647 9.4 37.728 9.24 37.9813 8.92C38.2413 8.59333 38.3713 8.13333 38.3713 7.54C38.3713 6.94667 38.2413 6.49 37.9813 6.17C37.728 5.85 37.3647 5.69 36.8913 5.69C36.418 5.69 36.048 5.85 35.7813 6.17C35.5213 6.49 35.3913 6.94 35.3913 7.52C35.3913 8.11333 35.5213 8.57667 35.7813 8.91C36.048 9.23667 36.418 9.4 36.8913 9.4ZM45.7098 5.01C46.1364 5.01 46.5131 5.11333 46.8398 5.32C47.1664 5.52667 47.4198 5.82 47.5998 6.2C47.7798 6.58 47.8698 7.02 47.8698 7.52C47.8698 8.02667 47.7798 8.47333 47.5998 8.86C47.4198 9.24 47.1664 9.53667 46.8398 9.75C46.5131 9.96333 46.1364 10.07 45.7098 10.07C45.3298 10.07 44.9964 9.98667 44.7098 9.82C44.4298 9.65333 44.2164 9.41667 44.0698 9.11V9.65C44.0698 9.77 44.0331 9.86667 43.9598 9.94C43.8931 10.0133 43.7964 10.05 43.6698 10.05C43.5431 10.05 43.4431 10.0133 43.3698 9.94C43.2964 9.86667 43.2598 9.77 43.2598 9.65V3.29C43.2598 3.17667 43.2964 3.08333 43.3698 3.01C43.4431 2.93667 43.5431 2.9 43.6698 2.9C43.7964 2.9 43.8931 2.93667 43.9598 3.01C44.0331 3.07667 44.0698 3.17 44.0698 3.29V5.97C44.2164 5.66333 44.4298 5.42667 44.7098 5.26C44.9964 5.09333 45.3298 5.01 45.7098 5.01ZM45.5498 9.4C46.0231 9.4 46.3898 9.23667 46.6498 8.91C46.9098 8.57667 47.0398 8.11333 47.0398 7.52C47.0398 6.94 46.9098 6.49 46.6498 6.17C46.3898 5.85 46.0231 5.69 45.5498 5.69C45.0764 5.69 44.7098 5.85 44.4498 6.17C44.1964 6.49 44.0698 6.94667 44.0698 7.54C44.0698 8.13333 44.1964 8.59333 44.4498 8.92C44.7098 9.24 45.0764 9.4 45.5498 9.4ZM52.5315 5.28C52.6048 5.12 52.7215 5.04 52.8815 5.04C52.9815 5.04 53.0715 5.07333 53.1515 5.14C53.2315 5.20667 53.2715 5.29 53.2715 5.39C53.2715 5.45 53.2582 5.50333 53.2315 5.55L50.4215 11.61C50.3882 11.6833 50.3382 11.74 50.2715 11.78C50.2115 11.82 50.1482 11.84 50.0815 11.84C49.9815 11.84 49.8915 11.8067 49.8115 11.74C49.7382 11.68 49.7015 11.6 49.7015 11.5C49.7015 11.4467 49.7148 11.3933 49.7415 11.34L50.4415 9.83L48.4615 5.55C48.4348 5.50333 48.4215 5.45333 48.4215 5.4C48.4215 5.3 48.4648 5.21333 48.5515 5.14C48.6448 5.06667 48.7448 5.03 48.8515 5.03C48.9182 5.03 48.9815 5.05 49.0415 5.09C49.1082 5.13 49.1582 5.18667 49.1915 5.26L50.8615 9.01L52.5315 5.28Z" fill="white"/>
</svg>
